<?xml version="1.0" encoding="UTF-8" standalone="no"?>
<svg
   xmlns:dc="http://purl.org/dc/elements/1.1/"
   xmlns:cc="http://creativecommons.org/ns#"
   xmlns:rdf="http://www.w3.org/1999/02/22-rdf-syntax-ns#"
   xmlns:svg="http://www.w3.org/2000/svg"
   xmlns="http://www.w3.org/2000/svg"
   id="svg22"
   viewBox="0 0 40.03125 45.304836"
   version="1.1"
   height="45.305mm"
   width="40.031mm">
  <defs
     id="defs26" />
  <metadata
     id="metadata2">
    <rdf:RDF>
      <cc:Work
         rdf:about="">
        <dc:format>image/svg+xml</dc:format>
        <dc:type
           rdf:resource="http://purl.org/dc/dcmitype/StillImage" />
        <dc:title></dc:title>
      </cc:Work>
    </rdf:RDF>
  </metadata>
  <g
     id="g20"
     shape-rendering="auto"
     fill="#fff"
     transform="translate(-1.0586 -1.162)">
    <path
       id="path4"
       style="font-feature-settings:normal;font-variant-alternates:normal;font-variant-caps:normal;font-variant-ligatures:normal;font-variant-numeric:normal;font-variant-position:normal;isolation:auto;mix-blend-mode:normal;shape-padding:0;text-decoration-color:#000000;text-decoration-line:none;text-decoration-style:solid;text-indent:0;text-orientation:mixed;text-transform:none;white-space:normal"
       solid-color="#000000"
       image-rendering="auto"
       dominant-baseline="auto"
       color-rendering="auto"
       color="#000000"
       d="m21.074 6.4355c-11.036-5e-7 -20.016 8.9793-20.016 20.016-6e-7 11.036 8.9793 20.016 20.016 20.016 11.036 0 20.016-8.9793 20.016-20.016s-8.9793-20.016-20.016-20.016zm0 3c9.415 0 17.016 7.6006 17.016 17.016 0 9.415-7.6006 17.016-17.016 17.016-9.415 0-17.016-7.6006-17.016-17.016 0-9.415 7.6006-17.016 17.016-17.016z" />
    <path
       id="path6"
       style="font-feature-settings:normal;font-variant-alternates:normal;font-variant-caps:normal;font-variant-ligatures:normal;font-variant-numeric:normal;font-variant-position:normal;isolation:auto;mix-blend-mode:normal;shape-padding:0;text-decoration-color:#000000;text-decoration-line:none;text-decoration-style:solid;text-indent:0;text-orientation:mixed;text-transform:none;white-space:normal"
       solid-color="#000000"
       image-rendering="auto"
       dominant-baseline="auto"
       color-rendering="auto"
       color="#000000"
       d="m15.795 1.1621a1.5002 1.5002 0 1 0 0 3h10.557a1.5002 1.5002 0 1 0 0 -3z" />
    <path
       id="path8"
       style="font-feature-settings:normal;font-variant-alternates:normal;font-variant-caps:normal;font-variant-ligatures:normal;font-variant-numeric:normal;font-variant-position:normal;isolation:auto;mix-blend-mode:normal;shape-padding:0;text-decoration-color:#000000;text-decoration-line:none;text-decoration-style:solid;text-indent:0;text-orientation:mixed;text-transform:none;white-space:normal"
       solid-color="#000000"
       image-rendering="auto"
       dominant-baseline="auto"
       color-rendering="auto"
       color="#000000"
       d="m21.049 1.793a1.6693 1.6693 0 0 0 -1.6445 1.6934v3.4297a1.6693 1.6693 0 1 0 3.3379 0v-3.4297a1.6693 1.6693 0 0 0 -1.6934 -1.6934z" />
    <path
       id="path10"
       style="font-feature-settings:normal;font-variant-alternates:normal;font-variant-caps:normal;font-variant-ligatures:normal;font-variant-numeric:normal;font-variant-position:normal;isolation:auto;mix-blend-mode:normal;shape-padding:0;text-decoration-color:#000000;text-decoration-line:none;text-decoration-style:solid;text-indent:0;text-orientation:mixed;text-transform:none;white-space:normal"
       solid-color="#000000"
       image-rendering="auto"
       dominant-baseline="auto"
       color-rendering="auto"
       color="#000000"
       d="m6.3613 26.877 0.087891 0.95312c0.34347 3.6557 3.8755 7.1864 8.3418 7.3203h0.0196c2.4129 0 4.1129-0.48358 5.2188-0.98633 1.1058-0.50275 1.668-1.0781 1.668-1.0781l0.29297-0.3125-0.14062-0.40234s-1.2212-3.5244-4.8125-4.6543c-2.1081-0.66327-3.4581-0.54752-4.752-0.41016-1.2938 0.13737-2.5624 0.29234-4.9883-0.22852zm1.7695 1.709c1.8522 0.26724 3.2431 0.22969 4.3027 0.11719 1.2863-0.13657 2.2694-0.24875 4.1836 0.35352 2.4513 0.77125 3.3731 2.6876 3.6484 3.3223-0.15918 0.13346-0.20269 0.22878-0.81641 0.50781-0.91972 0.41815-2.4064 0.85498-4.623 0.85742-3.3366-0.10314-5.9672-2.6151-6.6953-5.1582z" />
    <path
       id="path12"
       style="font-feature-settings:normal;font-variant-alternates:normal;font-variant-caps:normal;font-variant-ligatures:normal;font-variant-numeric:normal;font-variant-position:normal;isolation:auto;mix-blend-mode:normal;shape-padding:0;text-decoration-color:#000000;text-decoration-line:none;text-decoration-style:solid;text-indent:0;text-orientation:mixed;text-transform:none;white-space:normal"
       solid-color="#000000"
       image-rendering="auto"
       dominant-baseline="auto"
       color-rendering="auto"
       color="#000000"
       d="m11.752 18.385-0.08789 1.0488c-0.14781 1.7733-0.2649 4.4083 0.16016 6.8496 0.42436 2.4373 1.4229 4.7991 3.666 5.6523 1.768 0.79311 3.225 0.91566 4.2441 0.8125 1.0258-0.10383 1.6719-0.46094 1.6719-0.46094l0.23633-0.13476 0.07422-0.26367s0.35349-1.2469 0.42969-2.7715c0.0762-1.5246-0.08359-3.4159-1.3613-4.6719-2.1636-2.1267-3.089-2.6364-8.1211-5.5352zm1.1992 2.248c3.8609 2.223 4.9912 2.8889 6.8984 4.7637 0.8103 0.79648 1.0307 2.2983 0.96289 3.6543-0.05868 1.1742-0.26608 1.8982-0.33008 2.1445-0.12447 0.06002-0.26288 0.16186-0.88281 0.22461-0.80239 0.08121-2.0088 0.0045-3.5898-0.71094l-0.01953-0.0098-0.01953-0.0078c-1.5927-0.60112-2.4406-2.3997-2.8301-4.6367-0.32027-1.8395-0.28344-3.7941-0.18945-5.4219z" />
    <path
       id="path14"
       style="font-feature-settings:normal;font-variant-alternates:normal;font-variant-caps:normal;font-variant-ligatures:normal;font-variant-numeric:normal;font-variant-position:normal;isolation:auto;mix-blend-mode:normal;shape-padding:0;text-decoration-color:#000000;text-decoration-line:none;text-decoration-style:solid;text-indent:0;text-orientation:mixed;text-transform:none;white-space:normal"
       solid-color="#000000"
       image-rendering="auto"
       dominant-baseline="auto"
       color-rendering="auto"
       color="#000000"
       d="m21.201 13.332-0.58594 1.3008c-1.1856 2.6366-2.2957 4.5553-3.1133 6.3965s-1.3325 3.6262-1.2461 5.8379c0.16014 4.0995 4.4512 6.2715 4.4512 6.2715l0.33789 0.17773 0.32422-0.20117s1.0784-0.66103 2.1582-1.7051c1.0798-1.044 2.2461-2.4973 2.2461-4.248 0-3.1963-1.311-7.1422-3.9492-12.549z" />
    <path
       id="path16"
       style="font-feature-settings:normal;font-variant-alternates:normal;font-variant-caps:normal;font-variant-ligatures:normal;font-variant-numeric:normal;font-variant-position:normal;isolation:auto;mix-blend-mode:normal;shape-padding:0;text-decoration-color:#000000;text-decoration-line:none;text-decoration-style:solid;text-indent:0;text-orientation:mixed;text-transform:none;white-space:normal"
       solid-color="#000000"
       image-rendering="auto"
       dominant-baseline="auto"
       color-rendering="auto"
       color="#000000"
       d="m36.084 26.322-1.0547 0.28711c-2.9533 0.80484-4.4552 0.77825-5.7109 0.67383-1.2558-0.10443-2.387-0.31347-4.1641 0.19141-3.671 1.0429-4.666 4.8926-4.666 4.8926l-0.09961 0.37695 0.26758 0.2832s0.15061 0.1509 0.375 0.30273 0.5593 0.3434 1.0332 0.53906c0.94781 0.39132 2.4533 0.80118 4.7793 0.96875l0.0332 0.0039 0.0332-2e-3c5.1578-0.11816 8.3807-3.721 8.9941-7.4375zm-1.9121 1.877c-0.86854 2.6974-3.2678 5.128-7.2637 5.2324-2.1719-0.16132-3.5323-0.53885-4.3086-0.85938-0.2741-0.11317-0.40067-0.19723-0.54688-0.2832 0.21162-0.6297 1.0113-2.7623 3.4844-3.4648 1.5425-0.43822 2.3275-0.25389 3.666-0.14258 1.1197 0.09311 2.7284 0.0042 4.9688-0.48242z" />
    <path
       id="path18"
       style="font-feature-settings:normal;font-variant-alternates:normal;font-variant-caps:normal;font-variant-ligatures:normal;font-variant-numeric:normal;font-variant-position:normal;isolation:auto;mix-blend-mode:normal;shape-padding:0;text-decoration-color:#000000;text-decoration-line:none;text-decoration-style:solid;text-indent:0;text-orientation:mixed;text-transform:none;white-space:normal"
       solid-color="#000000"
       image-rendering="auto"
       dominant-baseline="auto"
       color-rendering="auto"
       color="#000000"
       d="m30.367 18.496-0.83203 0.38672c-4.2579 1.9882-6.0611 3.1506-8.207 5.5977-1.1611 1.324-1.3227 3.1833-1.2676 4.6836 0.05517 1.5003 0.36719 2.7109 0.36719 2.7109l0.06836 0.27148 0.24609 0.14062s0.64606 0.35711 1.6719 0.46094c1.0179 0.10303 2.4712-0.02007 4.2363-0.81055 2.3399-0.84403 3.3949-3.212 3.8105-5.6562 0.41661-2.4497 0.24262-5.089 0.01953-6.875z" />
  </g>
</svg>
